<svg width="300" height="302" viewBox="0 0 300 302" fill="none" xmlns="http://www.w3.org/2000/svg">
<g clip-path="url(#clip0_501_2)">
<path fill-rule="evenodd" clip-rule="evenodd" d="M13.3542 212.969C24.6232 219.627 36.2242 225.339 48.018 230.208C48.6106 237.639 51.7492 244.906 57.4336 250.59C70.1256 263.282 90.7035 263.282 103.396 250.59C104.343 249.642 105.22 248.651 106.026 247.622C165.82 259.603 224.826 254.909 266.033 246.077C262.924 249.862 259.602 253.53 256.066 257.066C197.487 315.645 102.513 315.645 43.9339 257.066C30.7926 243.925 20.5994 228.952 13.3542 212.969ZM256.171 74.0896C255.26 67.2646 252.183 60.6732 246.938 55.4285C234.246 42.7365 213.668 42.7365 200.976 55.4285C200.628 55.7764 200.29 56.1302 199.961 56.4896C137.167 43.0383 74.7778 48.3013 32.4661 57.78C36.0002 53.3355 39.8228 49.0451 43.9339 44.934C102.513 -13.6447 197.487 -13.6447 256.066 44.934C269.313 58.1812 279.565 73.2898 286.82 89.4179C276.827 83.5951 266.578 78.5093 256.171 74.0896ZM239.16 93.6123C247.556 85.216 247.556 71.603 239.16 63.2067C230.764 54.8104 217.151 54.8104 208.754 63.2067C200.358 71.603 200.358 85.216 208.754 93.6123C217.151 102.009 230.764 102.009 239.16 93.6123ZM95.6174 212.406C104.014 220.802 104.014 234.416 95.6174 242.812C87.2211 251.208 73.6081 251.208 65.2118 242.812C56.8155 234.416 56.8155 220.802 65.2118 212.406C73.6081 204.01 87.2211 204.01 95.6174 212.406ZM298.717 170.637C301.914 146.288 299.137 121.305 290.386 98.058C279.618 95.7444 267.218 93.5049 253.681 91.5749C252.105 95.1359 249.857 98.4717 246.938 101.39C234.246 114.082 213.668 114.082 200.976 101.39C196.567 96.981 193.689 91.6198 192.344 85.9682C123.324 83.2287 45.5921 92.7083 0.928779 134.283C-1.71896 158.031 1.29439 182.291 9.96883 204.875C22.0361 207.503 36.2231 210.047 51.8092 212.164C53.272 209.458 55.1468 206.915 57.4337 204.628C70.1257 191.936 90.7036 191.936 103.396 204.628C107.083 208.315 109.699 212.668 111.244 217.299C178.779 219.736 254.223 210.344 298.717 170.637Z" fill="#2980B9"/>
</g>
<defs>
<clipPath id="clip0_501_2">
<rect width="300" height="302" fill="white"/>
</clipPath>
</defs>
</svg>
